<svg xmlns="http://www.w3.org/2000/svg" xmlns:xlink="http://www.w3.org/1999/xlink"><symbol id="facebook" viewBox="0 0 9 19">
<path d="M6.3 3.4C7.1 3.4 7.9 3.4 8.7 3.4C8.7 2.3 8.7 1.2 8.7 0C7.7 0 6.8 0 5.8 0C2.7 0.2 1.5 2.4 1.9 6.1H0V9.6H2C2 12.7 2 15.8 2 18.9C3.3 18.9 4.6 18.9 5.8 18.9C5.8 15.8 5.8 12.7 5.8 9.6H8.7V6.1H5.8C5.8 5.1 5.8 3.7 6.3 3.4Z" fill="white"/>
</symbol><symbol id="htmlacademy" viewBox="0 0 27 35">
<path d="M13.6 0H13.5L0 1.4V26.1L13.5 34.1L26.9 26.1V1.4L13.6 0ZM25 12.1L13.5 5.3V5.2H13.4L13.3 5.1V5.2L1.9 12.1V3.1L13.4 1.9L25 3.1V12.1ZM13.4 6.8L24.9 13.5L20.4 16.1L13.3 11.9V13.3L19.2 16.8L18.3 17.3L13.3 14.3V15.7L17.1 18L16.3 18.5L13.3 16.7V18.1L15.2 19.2L13.4 20.3L2 13.6L13.4 6.8ZM1.9 15.1L13.3 21.9V22.9L5.4 18.2V19.6L13.4 24.4V25.5L5.4 20.8V22.2L13.4 27L21.5 22.1V16.9L24.9 14.9V24.9L13.4 31.8L1.9 25V15.1Z" fill="black"/>
</symbol><symbol id="icon-burger" viewBox="0 0 77 69">
<path d="M71.9 46H4.3C1.9 46 0 48 0 50.3V53.8C0 56.1 1.9 58 4.3 58H5.3V59C5.3 64.5 9.8 68.9 15.2 68.9H61C66.5 68.9 70.9 64.4 70.9 59V58H71.9C74.2 58 76.2 56.1 76.2 53.7V50.2C76.2 48 74.3 46 71.9 46ZM68 59C68 62.8 64.9 65.9 61.1 65.9H15.1C11.3 65.9 8.2 62.8 8.2 59V58H68V59ZM73.2 53.7C73.2 54.4 72.6 55 71.9 55H4.3C3.6 55 3 54.4 3 53.7V50.2C3 49.6 3.6 49 4.3 49H72C72.7 49 73.3 49.6 73.3 50.3V53.7H73.2Z" fill="#81B3D2"/>
<path d="M16.2 37.9L21.6 41.9L27.1 37.9L32.6 41.9L38.1 37.9L43.5 41.9L49 37.9L54.5 41.9L60 37.9L65.5 41.9L71.8 37.2L70.1 34.8L65.5 38.1L60 34.1L54.5 38.1L49 34.1L43.5 38.1L38.1 34.1L32.6 38.1L27.1 34.1L21.6 38.1L16.2 34.1L10.7 38.1L6.10005 34.8L4.30005 37.2L10.7 41.9L16.2 37.9Z" fill="#81B3D2"/>
<path d="M70.9 31.1C70.9 30.5 71 28.5 70.9 28.1C70.2 12.5 55.7999 0 38.0999 0C20.3999 0 5.89995 12.5 5.19995 28.1C5.19995 28.5 5.19995 30.5 5.19995 31.1H70.9ZM38.0999 3C54.0999 3 67.3 14.2 67.9 28.1H8.19995C8.89995 14.2 22.0999 3 38.0999 3Z" fill="#81B3D2"/>
<path d="M38.1 17C39.2045 17 40.1 16.1046 40.1 15C40.1 13.8954 39.2045 13 38.1 13C36.9954 13 36.1 13.8954 36.1 15C36.1 16.1046 36.9954 17 38.1 17Z" fill="#81B3D2"/>
<path d="M30.1 12.1C31.2045 12.1 32.1 11.2045 32.1 10.1C32.1 8.99541 31.2045 8.09998 30.1 8.09998C28.9954 8.09998 28.1 8.99541 28.1 10.1C28.1 11.2045 28.9954 12.1 30.1 12.1Z" fill="#81B3D2"/>
<path d="M46.1 12.1C47.2045 12.1 48.1 11.2045 48.1 10.1C48.1 8.99541 47.2045 8.09998 46.1 8.09998C44.9954 8.09998 44.1 8.99541 44.1 10.1C44.1 11.2045 44.9954 12.1 46.1 12.1Z" fill="#81B3D2"/>
</symbol><symbol id="icon-cross" viewBox="0 0 23 22">
<path d="M23 2.77477L20.0991 0L11.5 8.22522L2.9009 0L0 2.77477L8.5991 11L0 19.2252L2.9009 22L11.5 13.7748L20.0991 22L23 19.2252L14.4009 11L23 2.77477Z" fill="white"/>
</symbol><symbol id="icon-gift" viewBox="0 0 63 76">
<path d="M60.2 22.1237H60.1H35.8C49.4 15.3237 50.5 11.0237 50 8.62371C48.9 4.72371 44.4 1.72371 40.2 3.32371C34.7 5.42371 33.2 13.6237 31.7 19.5237C29.8 13.5237 28 5.92371 23.7 2.02371C22.5 0.923705 20.7 -0.176294 18 0.0237057C14 0.423706 8.3 5.32371 10.7 10.8237C12.9 16.1237 20.2 19.5237 25.1 22.2237H2.8C1.2 22.2237 0 23.5237 0 25.0237V36.2237C0 37.8237 1.3 39.0237 2.8 39.0237H3.1V75.0237H60.1V39.0237H60.2C61.8 39.0237 63 37.7237 63 36.2237V25.0237C63 23.4237 61.7 22.1237 60.2 22.1237ZM41.8 5.82371C43.9 5.52371 46.7 7.12371 47 9.02371C47.4 11.7237 43.7 14.2237 42 15.3237C39.5 17.0237 37.1 17.9237 34.8 19.3237C35.6 15.6237 37.3 6.42371 41.8 5.82371ZM19.2 15.6237C17 14.1237 12.8 11.2237 12.9 7.92371C13 4.32371 18.6 1.42371 21.6 4.12371C25.4 7.42371 27.2 15.1237 28.6 20.5237C25.4 18.9237 22.4 17.7237 19.2 15.6237ZM25.1 72.0237H6V39.0237H25.1V72.0237ZM25.1 36.0237H3V25.1237H25.1V36.0237ZM35.1 72.0237H28V25.1237H35.1V72.0237ZM57.1 72.0237H38.1V39.0237H57.2V72.0237H57.1ZM60 36.0237H38.1V25.1237H60V36.0237Z" fill="#81B3D2"/>
</symbol><symbol id="icon-house" viewBox="0 0 75 73">
<path d="M29.5 65.3H45.5V41.4H29.5V65.3ZM42.6 62.4H32.4V44.3H42.5V62.4H42.6Z" fill="#81B3D2"/>
<path d="M72.6 39.4L74.7 37.3L64.8 27.4V0.4H51V13.6L37.3 0L0 37.4L2.1 39.5L9.9 31.7V69.5H6V72.4H69.9V69.5H64.8V31.6L72.6 39.4ZM53.9 3.4H61.8V24.5L53.9 16.6V3.4ZM61.9 69.4H12.9V28.7L37.3 4.2L61.8 28.7V69.4H61.9Z" fill="#81B3D2"/>
<path d="M29.8 27.2C29.8 31.5 33.3 35 37.5 35C41.8 35 45.3 31.5 45.3 27.2C45.3 22.9 41.8 19.5 37.5 19.5C33.2 19.5 29.8 22.9 29.8 27.2ZM37.5 22.2C40.2 22.2 42.5 24.4 42.5 27.2C42.5 29.9 40.3 32.2 37.5 32.2C34.8 32.2 32.5 30 32.5 27.2C32.5 24.5 34.8 22.2 37.5 22.2Z" fill="#81B3D2"/>
<path d="M20 41H17V44.9H20V41Z" fill="#81B3D2"/>
<path d="M25.8 41.4H22.8V45.3H25.8V41.4Z" fill="#81B3D2"/>
<path d="M19.9 47.4H16.9V51.3H19.9V47.4Z" fill="#81B3D2"/>
<path d="M25.8 47.4H22.8V51.3H25.8V47.4Z" fill="#81B3D2"/>
<path d="M51.8 41.4H48.8V45.3H51.8V41.4Z" fill="#81B3D2"/>
<path d="M57.8 41.4H54.8V45.3H57.8V41.4Z" fill="#81B3D2"/>
<path d="M51.8 47.4H48.8V51.3H51.8V47.4Z" fill="#81B3D2"/>
<path d="M57.8 47.4H54.8V51.3H57.8V47.4Z" fill="#81B3D2"/>
</symbol><symbol id="icon-menu" viewBox="0 0 23 22">
<path d="M22.9 0H0V4H22.9V0Z" fill="#81B3D2"/>
<path d="M22.9 9H0V13H22.9V9Z" fill="#81B3D2"/>
<path d="M22.9 18H0V22H22.9V18Z" fill="#81B3D2"/>
</symbol><symbol id="like-icon-white" viewBox="0 0 23 21">
<path d="M12.9636 3.78L12.3364 6.825L11.7091 9.45H14.3227H20.8045V11.55C20.8045 11.55 20.8045 11.55 20.8045 11.655L17.7727 18.9H8.36364V8.4L12.9636 3.78ZM2.09091 10.5V18.9V10.5ZM13.8 0L6.9 6.93C6.48182 7.245 6.27273 7.77 6.27273 8.4V18.9C6.27273 20.055 7.21364 21 8.36364 21H17.7727C18.6091 21 19.3409 20.475 19.6545 19.74L22.7909 12.285C22.8955 12.075 22.8955 11.76 22.8955 11.55V9.45H23C23 8.295 22.0591 7.35 20.9091 7.35H14.3227L15.3682 2.52V2.205C15.3682 1.785 15.1591 1.365 14.95 1.05L13.8 0ZM4.18182 8.4H0V21H4.18182V8.4Z" fill="white"/>
</symbol><symbol id="like-icon" viewBox="0 0 23 21">
<path opacity="0.3" d="M12.9636 3.78L12.3364 6.825L11.7091 9.45H14.3227H20.8045V11.55C20.8045 11.55 20.8045 11.55 20.8045 11.655L17.7727 18.9H8.36364V8.4L12.9636 3.78ZM2.09091 10.5V18.9V10.5ZM13.8 0L6.9 6.93C6.48182 7.245 6.27273 7.77 6.27273 8.4V18.9C6.27273 20.055 7.21364 21 8.36364 21H17.7727C18.6091 21 19.3409 20.475 19.6545 19.74L22.7909 12.285C22.8955 12.075 22.8955 11.76 22.8955 11.55V9.45H23C23 8.295 22.0591 7.35 20.9091 7.35H14.3227L15.3682 2.52V2.205C15.3682 1.785 15.1591 1.365 14.95 1.05L13.8 0ZM4.18182 8.4H0V21H4.18182V8.4Z" fill="black"/>
</symbol><symbol id="mail" viewBox="0 0 16 12">
<path d="M8 8C7.7 8 7.5 7.9 7 7.7L0 4V11C0 11.5 0.5 12 1 12H15C15.5 12 16 11.5 16 11V4L9 7.7C8.5 7.9 8.3 8 8 8ZM15 0H1C0.5 0 0 0.5 0 1V1.8L8 6L16 1.8V1C16 0.5 15.5 0 15 0Z" fill="black"/>
</symbol><symbol id="map-marker" viewBox="0 0 27 27">
<path d="M13.5 27C20.9558 27 27 20.9558 27 13.5C27 6.04416 20.9558 0 13.5 0C6.04416 0 0 6.04416 0 13.5C0 20.9558 6.04416 27 13.5 27Z" fill="white"/>
<path d="M13.5 21.9001C18.1392 21.9001 21.9 18.1393 21.9 13.5001C21.9 8.86091 18.1392 5.1001 13.5 5.1001C8.86078 5.1001 5.09998 8.86091 5.09998 13.5001C5.09998 18.1393 8.86078 21.9001 13.5 21.9001Z" fill="#81B3D3"/>
</symbol><symbol id="phone" viewBox="0 0 18 18">
<path d="M3.6 7.8C5 10.6 7.4 12.9 10.2 14.4L12.4 12.2C12.7 11.9 13.1 11.8 13.4 12C14.5 12.4 15.7 12.6 17 12.6C17.6 12.6 18 13 18 13.6V17C18 17.6 17.6 18 17 18C7.6 18 0 10.4 0 1C0 0.4 0.4 0 1 0H4.5C5.1 0 5.5 0.4 5.5 1C5.5 2.2 5.7 3.4 6.1 4.6C6.2 4.9 6.1 5.3 5.9 5.6L3.6 7.8Z" fill="#010101"/>
</symbol><symbol id="tick" viewBox="0 0 24 17">
<path d="M22.925 1.325L21.825 0.225C21.525 -0.075 20.925 -0.075 20.625 0.225L8.725 12.125L2.525 5.925C2.225 5.625 1.625 5.625 1.325 5.925L0.225 7.025C-0.075 7.325 -0.075 7.925 0.225 8.225L8.025 16.025C8.225 16.225 8.425 16.225 8.625 16.225C8.825 16.225 9.025 16.125 9.225 16.025L22.725 2.525C23.225 2.225 23.225 1.725 22.925 1.325Z" fill="black"/>
</symbol><symbol id="twitter" viewBox="0 0 18 15">
<path d="M11.3 0.166728C13 -0.333272 14.4 0.366728 15 1.26673C15.7 1.06673 16.4 0.766728 17.1 0.566728C17.1 1.36673 16.6 2.06673 16.2 2.26673C16.9 2.46673 17.5 1.76673 17.5 1.76673C17.3 2.76673 16.5 3.46673 15.9 3.76673C15.7 10.3667 12.6 14.7667 5.5 14.5667C5 14.5667 5.6 14.5667 5 14.5667C4.6 14.5667 0.7 14.1667 0 12.7667C2.3 12.9667 4 12.3667 4.8 11.6667C3.8 11.3667 2 11.1667 1.7 8.76673C2.1 8.86673 2.3 8.96673 3 8.86673C1.8 8.06673 0.4 7.36673 0.5 5.16673C0.8 5.46673 1.6 5.66673 1.9 5.66673C1.2 5.46673 -0.1 2.36673 1 0.866728C2.9 2.66673 4.8 4.36673 8.4 4.56673C8.5 2.26673 9.5 0.766728 11.3 0.166728Z" fill="white"/>
</symbol><symbol id="youtube" viewBox="0 0 20 14">
<path d="M17.1 0H2.8C1.3 0 0 1.3 0 2.8V11.1C0 12.7 1.3 14 2.8 14H17.1C18.7 14 19.9 12.7 19.9 11.2V2.8C20 1.3 18.7 0 17.1 0ZM7 10.4V3.6L13.8 7L7 10.4Z" fill="white"/>
</symbol></svg>