<svg width="189" height="45" fill="none" xmlns="http://www.w3.org/2000/svg"><path d="M28.2 0h7.7l-1.2 44.9H20.2l-2-18.5-2 18.5H1.6L.5 0h7.6l.6 37.2h.8L14.4 0H22l4.9 37.2h.8L28.2 0zM60 37.2V45H39.1V0H60v7.7H46.7v10.8h10.6v7.7H46.7v10.9H60v.1zm21.4 0V45H63.1V0h7.6v37.2h10.7zm16.2-8.8l7.7-1.8v13.6c0 2.6-2.2 4.7-4.7 4.7H89.1c-2.6 0-4.7-2.2-4.7-4.7V4.7c0-2.6 2.1-4.7 4.7-4.7h11.5c2.5 0 4.7 2.1 4.7 4.7v9.1l-7.7 1.8v-8h-5.5v29.5h5.5v-8.7zM126.1 0c2.5 0 4.7 2.1 4.7 4.7v35.4c0 2.6-2.2 4.7-4.7 4.7h-11.5c-2.6 0-4.7-2.2-4.7-4.7V4.7c0-2.6 2.1-4.7 4.7-4.7h11.5zm-3 7.7h-5.5v29.5h5.5V7.7zM156.2 0h7.6v44.9h-7.6V22.8l-3.1 11.4h-7.5l-3-11.4v22.1H135V0h7.6l6.8 21.7L156.2 0zm31.9 37.2V45h-20.9V0h20.9v7.7h-13.3v10.8h10.6v7.7h-10.6v10.9h13.3v.1z" fill="#81B3D3"/></svg>